<svg xmlns="http://www.w3.org/2000/svg" viewBox="20 20 460 459.058" width="460" height="459.058">
  <g transform="matrix(-1, 0, 0, -1, 500.000031, 499.058319)">
    <path d="M233 453 c-70 -24 -73 -26 -73 -57 0 -26 5 -34 30 -43 27 -10 30 -9
            30 8 0 16 7 19 40 19 33 0 40 -3 40 -20 0 -16 -7 -20 -36 -20 -31 0 -34 -2
            -20 -15 8 -8 24 -15 35 -15 14 0 21 -6 21 -20 0 -11 -6 -20 -14 -20 -8 0 -16
            -7 -20 -15 -4 -10 1 -15 14 -15 13 0 20 -7 20 -20 0 -13 -7 -20 -19 -20 -10 0
            -21 -7 -25 -15 -4 -11 1 -15 19 -15 18 0 25 -5 25 -20 0 -15 -7 -20 -27 -20
            -27 -1 -27 -1 10 -21 21 -11 41 -27 44 -34 4 -11 24 -15 79 -15 l74 0 0 184 0
            184 -78 26 c-42 14 -82 26 -87 25 -6 0 -43 -12 -82 -26z m187 -93 c0 -17 -7
            -20 -40 -20 -33 0 -40 3 -40 20 0 17 7 20 40 20 33 0 40 -3 40 -20z m0 -70 c0
            -17 -7 -20 -40 -20 -33 0 -40 3 -40 20 0 17 7 20 40 20 33 0 40 -3 40 -20z m0
            -70 c0 -17 -7 -20 -40 -20 -33 0 -40 3 -40 20 0 17 7 20 40 20 33 0 40 -3 40
            -20z m0 -70 c0 -17 -7 -20 -40 -20 -33 0 -40 3 -40 20 0 17 7 20 40 20 33 0
            40 -3 40 -20z"></path>
    <path d="M120 322 c-32 -26 -35 -94 -7 -150 34 -66 80 -69 110 -7 17 36 23
             122 9 140 -11 16 -50 35 -71 35 -10 0 -29 -8 -41 -18z"></path>
    <path d="M83 99 c-39 -16 -63 -43 -63 -68 0 -7 25 -11 64 -11 63 0 64 0 70 31
            9 44 8 47 -11 57 -12 7 -31 4 -60 -9z"></path>
    <path d="M195 106 c-13 -9 -15 -20 -10 -49 l7 -37 64 0 c48 0 64 3 64 14 0 40
            -94 95 -125 72z"></path>
  </g>
  </svg>